<?xml version="1.0" standalone="no"?><!DOCTYPE svg PUBLIC "-//W3C//DTD SVG 1.1//EN" "http://www.w3.org/Graphics/SVG/1.1/DTD/svg11.dtd"><svg t="1785725422057" class="icon" viewBox="0 0 1024 1024" version="1.1" xmlns="http://www.w3.org/2000/svg" p-id="5197" xmlns:xlink="http://www.w3.org/1999/xlink" width="200" height="200"><path d="M795.980398 95.343534C668.502303 187.496375 502.272756 330.451422 340.611469 588.873191c-161.621905 258.421769-240.306253 488.725107-136.614616 423.036671 0 0 171.900491-342.383246 295.913009-399.644027 124.051901-57.2214 243.102344-71.516905 318.754313-164.457377 0 0 33.749993-64.703896-113.812697 0 0 0-51.589838-7.561259 22.841303-46.982196 74.391759-39.381556 229.279418-120.113745 250.269787-188.046929 0 0 33.080507-43.713527-68.287618 0s-120.034982 24.259038-45.525079-23.55017c74.549285-47.691064 152.13095-113.812696 159.45592-164.496758 7.324969-50.684062-100.265441-21.659856-227.625393 70.532366zM278.664282 60.293949h-233.13881C20.360658 60.333331 0.039775 81.3237 0.039775 107.315527v358.214631c0 22.841302 17.839845 41.27187 39.972279 41.27187 22.132434 0 39.972279-18.430568 39.97228-41.27187V142.877072h198.679948c22.132434 0 39.972279-18.430568 39.972279-41.271871 0-22.841302-17.839845-41.27187-39.972279-41.27187z m629.750458 722.887838v158.195709h-335.333947c-22.132434 0-39.972279 18.588094-39.972279 41.27187 0 22.841302 17.997371 41.27187 39.972279 41.271871h369.792808c25.164814 0 45.485697-20.990369 45.485697-46.982196v-193.757254c0-22.841302-17.839845-41.232489-39.972279-41.232489-21.974908 0-39.972279 18.391187-39.972279 41.232489z" fill="#000000" p-id="5198"></path></svg>